<svg width="420" height="420" viewBox="0 0 420 420" fill="none" xmlns="http://www.w3.org/2000/svg">
  <rect width="420" height="420" rx="40" fill="#FFF5EA"/>
  <circle cx="210" cy="145" r="62" fill="#F3C9A4"/>
  <path d="M130 320C130 272.026 168.922 233 217 233H203C251.078 233 290 272.026 290 320V333H130V320Z" fill="#C56A2D"/>
  <rect x="88" y="85" width="74" height="44" rx="16" fill="#FFFFFF"/>
  <rect x="258" y="270" width="84" height="44" rx="16" fill="#FFFFFF"/>
  <rect x="269" y="281" width="42" height="8" rx="4" fill="#D68A55"/>
  <rect x="99" y="96" width="42" height="8" rx="4" fill="#D68A55"/>
  <rect x="173" y="120" width="74" height="18" rx="9" fill="#6B3D1F"/>
  <circle cx="188" cy="152" r="7" fill="#6B3D1F"/>
  <circle cx="233" cy="152" r="7" fill="#6B3D1F"/>
  <path d="M187 184C195.833 193.333 224.4 201.4 241.2 181" stroke="#6B3D1F" stroke-width="8" stroke-linecap="round"/>
</svg>
