<svg width="1200" height="800" viewBox="0 0 1200 800" fill="none" xmlns="http://www.w3.org/2000/svg">
  <rect width="1200" height="800" rx="36" fill="#F7F7F7"/>
  <g fill="#2D56A8">
    <path d="M112 232.6H177.9C234.5 232.6 268.1 263.9 268.1 314.2C268.1 364.5 234.5 395.8 177.9 395.8H112V232.6ZM176.2 361.8C209.6 361.8 229.6 343.7 229.6 314.2C229.6 284.7 209.6 266.6 176.2 266.6H150.4V361.8H176.2Z"/>
    <path d="M291.7 232.6H366.8C414.4 232.6 443.3 255.5 443.3 293.6C443.3 331.5 414.4 354 366.8 354H330V395.8H291.7V232.6ZM364.7 321.1C390.4 321.1 404.6 311 404.6 293.6C404.6 276 390.4 265.5 364.7 265.5H330V321.1H364.7Z"/>
    <path d="M471.3 232.6H548.2C594.5 232.6 622.7 254.7 622.7 291.8C622.7 317 610.3 335.2 588.4 344.6L623.6 395.8H582.6L552.7 352.3H509.6V395.8H471.3V232.6ZM546 320.4C571.1 320.4 584.3 311 584.3 291.8C584.3 272.8 571.1 263.8 546 263.8H509.6V320.4H546Z"/>
  </g>
  <g fill="#2D56A8">
    <path d="M629.9 197.6C631.6 156.3 660.4 140.2 720.6 140.2C781.1 140.2 811.4 156.6 811.4 188.4C811.4 215.9 794.1 230.7 743.1 243.7L702.3 254.1C681.4 259.3 674.1 263.4 674.1 271.6C674.1 282.2 686.7 288 715.4 288C751.3 288 763.8 281.3 765.9 264.6H819.3C816.9 306.4 788.4 323.9 715 323.9C641.2 323.9 618.5 307.7 618.5 274.8C618.5 246.8 635.3 232.7 689.2 219.9L728 210.6C750.5 205.2 756.1 201.2 756.1 193.1C756.1 182.9 746.3 176.1 717.1 176.1C685.3 176.1 675.8 181.8 673.1 197.6H629.9Z"/>
    <path d="M834.5 144.7H891.9L859.1 319.2H801.8L834.5 144.7Z"/>
    <path d="M905.1 144.7H1058.2L1050.4 185.5H953.9L948.5 213.6H1036.3L1029 252H941.2L935.1 283.6H1033.1L1025.4 324.4H872.5L905.1 144.7Z"/>
  </g>
  <g fill="#E85A1A">
    <path d="M105.4 479.1H154.1C219.6 479.1 258.4 518.7 258.4 582.6C258.4 646.6 219.6 686.1 154.1 686.1H105.4V479.1ZM152.1 642.5C189.4 642.5 211.5 619.9 211.5 582.6C211.5 545.3 189.4 522.8 152.1 522.8H152.1V642.5Z"/>
    <path d="M280.4 479.1H425.2V522.8H327.3V561.8H416.3V604.7H327.3V642.5H428.1V686.1H280.4V479.1Z"/>
    <path d="M457.5 479.1H506.2V686.1H457.5V479.1Z"/>
    <path d="M532.5 479.1H580.6L658.5 593.5V479.1H706.2V686.1H660.7L580.2 568.5V686.1H532.5V479.1Z"/>
    <path d="M731.8 479.1H780.5V686.1H731.8V479.1Z"/>
    <path d="M808.2 479.1H857L934.8 593.5V479.1H982.5V686.1H937.1L856.5 568.5V686.1H808.2V479.1Z"/>
    <path d="M1000.4 582.6C1000.4 518.1 1045.5 473.7 1110 473.7C1141.4 473.7 1168 482.6 1188.4 501.4L1162.7 537.4C1148.3 524.9 1131.5 518.9 1111.8 518.9C1074.2 518.9 1048.4 545.3 1048.4 582.6C1048.4 619.6 1073.3 646.3 1110.8 646.3C1127.6 646.3 1142.8 641.9 1155.9 632.5V604.1H1110.4V563.8H1200V653.2C1176.9 676.2 1145.3 691.6 1108.8 691.6C1044.9 691.6 1000.4 647.2 1000.4 582.6Z"/>
  </g>
</svg>
